<?xml version="1.0" standalone="no"?>
<!DOCTYPE svg PUBLIC "-//W3C//DTD SVG 1.1//EN" "http://www.w3.org/Graphics/SVG/1.1/DTD/svg11.dtd" >
<svg xmlns="http://www.w3.org/2000/svg">
<metadata>Generated by IcoMoon</metadata>
<defs>
<font id="manuelosorio-iconfont" horiz-adv-x="1024">
<font-face units-per-em="1024" ascent="960" descent="-64" />
<missing-glyph horiz-adv-x="1024" />
<glyph unicode="&#x20;" horiz-adv-x="512" d="" />
<glyph unicode="&#xe900;" glyph-name="arrow-down" horiz-adv-x="1642" d="M200.784 960c0.725 0.009 1.581 0.015 2.439 0.015 56.266 0 107.214-22.764 144.139-59.585l-0.005 0.005 473.182-475.859 473.851 475.859c36.826 36.826 87.701 59.603 143.895 59.603 112.389 0 203.499-91.11 203.499-203.499 0-56.195-22.777-107.069-59.603-143.895v0l-617.746-617.077c-36.486-37.291-87.323-60.411-143.561-60.411s-107.075 23.121-143.525 60.375l-0.035 0.036-617.746 617.077c-39.187 36.735-63.602 88.823-63.602 146.613 0 110.89 89.894 200.784 200.784 200.784 1.419 0 2.835-0.015 4.247-0.044l-0.211 0.003z" />
<glyph unicode="&#xe901;" glyph-name="arrow-left" horiz-adv-x="639" d="M638.695 834.766c0.001-0.215 0.002-0.47 0.002-0.725 0-34.818-14.209-66.317-37.144-89.016l-0.011-0.011-295.136-296.806 295.136-295.553c23.005-22.953 37.237-54.69 37.237-89.751 0-70.019-56.761-126.78-126.78-126.78-34.957 0-66.61 14.148-89.545 37.031l-385.303 385.303c-23.259 22.757-37.68 54.466-37.68 89.543s14.421 66.785 37.657 89.521l0.023 0.022 385.305 385.305c22.881 24.173 55.194 39.218 91.021 39.218 69.165 0 125.234-56.069 125.234-125.234 0-0.726-0.006-1.451-0.018-2.174l0.001 0.109z" />
<glyph unicode="&#xe902;" glyph-name="arrow-right" horiz-adv-x="639" d="M0 62.904c0.040 35.039 14.227 66.757 37.156 89.755l-0.003-0.003 296.806 295.136-296.806 295.553c-22.969 22.969-37.176 54.701-37.176 89.751 0 70.1 56.827 126.928 126.928 126.928 35.050 0 66.782-14.207 89.751-37.176v0l384.887-385.305c23.259-22.757 37.68-54.466 37.68-89.543s-14.421-66.785-37.657-89.521l-0.023-0.022-384.887-385.305c-22.916-24.472-55.424-39.72-91.493-39.72-69.165 0-125.234 56.069-125.234 125.234 0 1.49 0.026 2.974 0.078 4.451l-0.006-0.214z" />
<glyph unicode="&#xe903;" glyph-name="arrow-up" horiz-adv-x="1642" d="M1438.285-64c-0.345-0.002-0.754-0.003-1.163-0.003-55.822 0-106.324 22.781-142.716 59.552l-473.199 473.199-473.851-473.182c-36.8-36.883-87.683-59.702-143.895-59.702-112.259 0-203.262 91.004-203.262 203.262 0 56.046 22.684 106.794 59.371 143.565l617.742 617.742c36.486 37.291 87.323 60.411 143.561 60.411s107.075-23.121 143.525-60.375l0.035-0.036 617.746-617.746c38.797-36.689 62.944-88.522 62.944-145.995 0-110.89-89.894-200.784-200.784-200.784-2.129 0-4.251 0.033-6.364 0.099l0.309-0.008z" />
<glyph unicode="&#xe904;" glyph-name="calander" horiz-adv-x="933" d="M817.781 854.803c-14.986 0-27.134-12.148-27.134-27.134v0-26.717c-0.11-18.196-4.733-35.288-12.804-50.246l0.281 0.569c-6.535-11.591-14.755-21.408-24.462-29.503l-0.168-0.136c-17.427-15.048-40.299-24.214-65.311-24.214-0.227 0-0.454 0.001-0.68 0.002h0.035c-0.252-0.002-0.55-0.004-0.848-0.004-24.814 0-47.485 9.174-64.806 24.314l0.115-0.099c-2.49 1.787-4.675 3.707-6.657 5.82l-0.022 0.024c-6.999 6.828-12.972 14.663-17.693 23.282l-0.257 0.513c-8.141 14.274-12.941 31.365-12.941 49.578 0 0.035 0 0.069 0 0.104v-0.005 26.717c-0.235 15.036-12.479 27.134-27.548 27.134-0.001 0-0.002 0-0.003 0h-181.172c-14.986 0-27.134-12.148-27.134-27.134v0-26.299c0.005-0.373 0.008-0.813 0.008-1.254 0-17.916-4.644-34.747-12.795-49.354l0.264 0.515c-6.285-12.104-14.705-22.259-24.857-30.328l-0.19-0.146c-17.459-14.798-40.242-23.795-65.127-23.795-0.145 0-0.29 0-0.435 0.001h0.022c-24.868 0.116-47.618 9.089-65.279 23.923l0.157-0.129c-10.216 8.449-18.715 18.545-25.187 29.943l-0.278 0.531c-7.623 13.797-12.108 30.247-12.108 47.745 0 0.239 0.001 0.477 0.003 0.715v-0.036 27.969c0.002 0.125 0.003 0.273 0.003 0.421 0 14.755-11.961 26.717-26.717 26.717-0.148 0-0.296-0.001-0.443-0.004h-88.477c-14.986 0-27.134-12.148-27.134-27.134v0-864.535c0-14.986 12.148-27.134 27.134-27.134v0h878.728c0.001 0 0.002 0 0.003 0 15.070 0 27.313 12.098 27.548 27.112v864.557c-0.235 15.036-12.479 27.134-27.548 27.134-0.001 0-0.002 0-0.003 0v0zM773.531 68.331h-613.649c-15.122 0.231-27.32 12.429-27.551 27.53v488.436c0.235 15.036 12.479 27.134 27.548 27.134 0.001 0 0.002 0 0.003 0h613.648c15.036-0.235 27.134-12.479 27.134-27.548 0-0.001 0-0.002 0-0.003v0-487.997c0-0.001 0-0.002 0-0.003 0-15.070-12.098-27.313-27.112-27.548h-0.022zM294.718 444.034h-80.15c-12.68 0-22.96 10.279-22.96 22.96v0 80.985c-0.003 0.125-0.004 0.273-0.004 0.421 0 12.45 10.092 22.542 22.542 22.542 0.148 0 0.296-0.001 0.443-0.004h80.128c0.125 0.003 0.273 0.004 0.421 0.004 12.45 0 22.542-10.092 22.542-22.542 0-0.148-0.001-0.296-0.004-0.443v0.022-80.15c0-12.68-10.279-22.96-22.96-22.96v0zM506.782 444.034h-80.15c-12.68 0-22.96 10.279-22.96 22.96v0 80.985c-0.003 0.125-0.004 0.273-0.004 0.421 0 12.45 10.092 22.542 22.542 22.542 0.148 0 0.296-0.001 0.443-0.004h80.128c0.125 0.003 0.273 0.004 0.421 0.004 12.45 0 22.542-10.092 22.542-22.542 0-0.148-0.001-0.296-0.004-0.443v0.022-80.15c0-12.68-10.279-22.96-22.96-22.96v0zM718.845 444.034h-80.15c-12.68 0-22.96 10.279-22.96 22.96v0 80.985c-0.003 0.125-0.004 0.273-0.004 0.421 0 12.45 10.092 22.542 22.542 22.542 0.148 0 0.296-0.001 0.443-0.004h80.128c12.68 0 22.96-10.279 22.96-22.96v0-80.15c0-12.68-10.279-22.96-22.96-22.96v0zM294.718 277.055h-80.15c-0.125-0.003-0.273-0.004-0.421-0.004-12.45 0-22.542 10.092-22.542 22.542 0 0.148 0.001 0.296 0.004 0.443v-0.022 79.733c-0.003 0.125-0.004 0.273-0.004 0.421 0 12.45 10.092 22.542 22.542 22.542 0.148 0 0.296-0.001 0.443-0.004h80.128c0.125 0.003 0.273 0.004 0.421 0.004 12.45 0 22.542-10.092 22.542-22.542 0-0.148-0.001-0.296-0.004-0.443v0.022-80.15c0.003-0.125 0.004-0.273 0.004-0.421 0-12.45-10.092-22.542-22.542-22.542-0.148 0-0.296 0.001-0.443 0.004h0.022zM506.782 277.055h-80.15c-0.125-0.003-0.273-0.004-0.421-0.004-12.45 0-22.542 10.092-22.542 22.542 0 0.148 0.001 0.296 0.004 0.443v-0.022 79.733c-0.003 0.125-0.004 0.273-0.004 0.421 0 12.45 10.092 22.542 22.542 22.542 0.148 0 0.296-0.001 0.443-0.004h80.128c0.125 0.003 0.273 0.004 0.421 0.004 12.45 0 22.542-10.092 22.542-22.542 0-0.148-0.001-0.296-0.004-0.443v0.022-80.15c0.003-0.125 0.004-0.273 0.004-0.421 0-12.45-10.092-22.542-22.542-22.542-0.148 0-0.296 0.001-0.443 0.004h0.022zM718.845 277.055h-80.15c-0.125-0.003-0.273-0.004-0.421-0.004-12.45 0-22.542 10.092-22.542 22.542 0 0.148 0.001 0.296 0.004 0.443v-0.022 79.733c-0.003 0.125-0.004 0.273-0.004 0.421 0 12.45 10.092 22.542 22.542 22.542 0.148 0 0.296-0.001 0.443-0.004h80.128c12.68 0 22.96-10.279 22.96-22.96v0-80.15c0-12.68-10.279-22.96-22.96-22.96v0zM294.718 110.076h-80.15c-0.125-0.003-0.273-0.004-0.421-0.004-12.45 0-22.542 10.092-22.542 22.542 0 0.148 0.001 0.296 0.004 0.443v-0.022 78.48c-0.003 0.125-0.004 0.273-0.004 0.421 0 12.45 10.092 22.542 22.542 22.542 0.148 0 0.296-0.001 0.443-0.004h80.128c0.125 0.003 0.273 0.004 0.421 0.004 12.45 0 22.542-10.092 22.542-22.542 0-0.148-0.001-0.296-0.004-0.443v0.022-80.15c0.003-0.125 0.004-0.273 0.004-0.421 0-12.45-10.092-22.542-22.542-22.542-0.148 0-0.296 0.001-0.443 0.004h0.022zM506.782 110.076h-80.15c-0.125-0.003-0.273-0.004-0.421-0.004-12.45 0-22.542 10.092-22.542 22.542 0 0.148 0.001 0.296 0.004 0.443v-0.022 78.48c-0.003 0.125-0.004 0.273-0.004 0.421 0 12.45 10.092 22.542 22.542 22.542 0.148 0 0.296-0.001 0.443-0.004h80.128c0.125 0.003 0.273 0.004 0.421 0.004 12.45 0 22.542-10.092 22.542-22.542 0-0.148-0.001-0.296-0.004-0.443v0.022-80.15c0.003-0.125 0.004-0.273 0.004-0.421 0-12.45-10.092-22.542-22.542-22.542-0.148 0-0.296 0.001-0.443 0.004h0.022zM718.845 110.076h-80.15c-0.125-0.003-0.273-0.004-0.421-0.004-12.45 0-22.542 10.092-22.542 22.542 0 0.148 0.001 0.296 0.004 0.443v-0.022 78.48c-0.003 0.125-0.004 0.273-0.004 0.421 0 12.45 10.092 22.542 22.542 22.542 0.148 0 0.296-0.001 0.443-0.004h80.128c12.68 0 22.96-10.279 22.96-22.96v0-80.15c0-12.68-10.279-22.96-22.96-22.96v0zM740.97 908.236v-107.284c0.003-0.228 0.005-0.498 0.005-0.768 0-21.565-12.677-40.17-30.985-48.769l-0.329-0.139c-5.789-2.641-12.556-4.181-19.683-4.181-0.272 0-0.543 0.002-0.813 0.007l0.041-0.001c-0.417-0.013-0.907-0.020-1.399-0.020-7.199 0-14.037 1.544-20.201 4.32l0.311-0.125c-19.034 8.066-32.144 26.593-32.144 48.181 0 0.086 0 0.171 0.001 0.256v-0.013 106.867c0 29.28 23.736 53.016 53.016 53.016s53.016-23.736 53.016-53.016v0zM298.893 908.236v-106.867c0.014-0.456 0.022-0.992 0.022-1.531 0-21.586-12.9-40.158-31.412-48.429l-0.337-0.134c-6.39-2.871-13.847-4.558-21.695-4.592h-0.012c-0.369-0.011-0.804-0.017-1.24-0.017-7.295 0-14.193 1.701-20.319 4.729l0.269-0.12c-18.824 8.027-31.779 26.376-31.779 47.75 0 0.824 0.019 1.644 0.057 2.459l-0.004-0.115v105.614c0 29.28 23.736 53.016 53.016 53.016s53.016-23.736 53.016-53.016v0z" />
<glyph unicode="&#xe905;" glyph-name="cart" horiz-adv-x="1301" d="M333.822 262.311l-7.928-62.174h753.604c0.28 0.006 0.61 0.009 0.94 0.009 5.952 0 11.653-1.074 16.92-3.039l-0.334 0.109s0 0 0 0c59.834-13.316 103.902-65.943 103.902-128.862 0-72.824-59.036-131.86-131.86-131.86-72.797 0-131.816 58.992-131.86 131.779v0.004c-0.096 1.063-0.151 2.298-0.151 3.547s0.055 2.484 0.162 3.705l-0.011-0.158h-542.461c0.096-1.063 0.151-2.298 0.151-3.547s-0.055-2.484-0.162-3.705l0.011 0.158c0-72.824-59.036-131.86-131.86-131.86s-131.86 59.036-131.86 131.86v0c0.686 47.572 26.783 88.897 65.299 111.078l0.631 0.335 82.621 655.126h-216.985c-34.474 0.235-62.357 28.118-62.592 62.569v0.022c0 34.568 28.023 62.592 62.592 62.592v0h288.339c0.168 0.002 0.368 0.003 0.567 0.003 34.108 0 61.757-27.65 61.757-61.757 0-2.944-0.206-5.84-0.604-8.675l0.038 0.326-11.684-94.305h817.447c45.644-0.584 82.421-37.722 82.421-83.449 0-9.56-1.607-18.745-4.567-27.299l0.176 0.586-131.025-368.039c-11.905-32.257-42.301-54.88-78.007-55.081h-0.024z" />
<glyph unicode="&#xe906;" glyph-name="comment" horiz-adv-x="1119" d="M1100.81 18.237l-147.777 111.876c-8.043 6.243-13.17 15.913-13.17 26.78 0 6.976 2.112 13.458 5.733 18.843l-0.077-0.121c49.309 77.312 78.591 171.557 78.591 272.641 0 282.885-229.324 512.209-512.209 512.209-7.673 0-15.307-0.169-22.898-0.503l1.080 0.038c-265.292-13.629-476.917-225.543-490.036-489.705l-0.048-1.214c-0.284-6.369-0.446-13.838-0.446-21.345 0-279.792 224.702-507.102 503.491-511.314l0.397-0.005h569.817c24.899 0.595 44.855 20.921 44.855 45.907 0 14.498-6.719 27.427-17.213 35.843l-0.090 0.070zM260.905 364.302c-46.11 0-83.49 37.38-83.49 83.49s37.38 83.49 83.49 83.49c46.11 0 83.49-37.38 83.49-83.49v0c0-46.11-37.38-83.49-83.49-83.49v0zM511.374 364.302c-46.11 0-83.49 37.38-83.49 83.49s37.38 83.49 83.49 83.49c46.11 0 83.49-37.38 83.49-83.49v0c0-0.001 0-0.003 0-0.004 0-45.816-36.905-83.013-82.61-83.485h-0.045zM761.843 364.302c-46.11 0-83.49 37.38-83.49 83.49s37.38 83.49 83.49 83.49c46.11 0 83.49-37.38 83.49-83.49v0c0-0.005 0-0.011 0-0.017 0-45.523-36.434-82.536-81.733-83.471l-0.087-0.001z" />
<glyph unicode="&#xe907;" glyph-name="comment-outline" horiz-adv-x="1096" d="M512.209 834.766c213.23-0.038 386.072-172.904 386.072-386.139 0-68.977-18.086-133.73-49.774-189.775l1 1.924c-4.238-7.234-6.741-15.929-6.741-25.21 0-16.422 7.837-31.013 19.974-40.239l0.125-0.091 87.664-66.374c8.835-6.779 14.474-17.342 14.474-29.222 0-20.24-16.369-36.657-36.591-36.735h-422.882c-206.446 8.6-370.553 178.048-370.553 385.825 0 210.127 167.84 381.053 376.77 386.028l0.462 0.009zM512.209 960c-1.675 0.020-3.654 0.031-5.636 0.031-282.672 0-511.822-229.151-511.822-511.822 0-280.69 225.949-508.607 505.886-511.789l0.301-0.003h424.962c1.524-0.050 3.317-0.078 5.116-0.078 64.023 0 119.63 36.032 147.65 88.923l0.438 0.907c10.377 20.64 16.452 44.979 16.452 70.738 0 51.86-24.627 97.969-62.824 127.268l-0.382 0.281-41.745 32.561c-0.294 0.405-0.47 0.913-0.47 1.461s0.176 1.056 0.475 1.468l-0.005-0.007c22.586 55.662 35.692 120.228 35.692 187.855 0 282.885-229.324 512.209-512.209 512.209-0.661 0-1.321-0.001-1.981-0.004h0.103zM322.687 510.826c-34.813 0-63.035-28.222-63.035-63.035s28.222-63.035 63.035-63.035c34.813 0 63.035 28.222 63.035 63.035v0c0 34.813-28.222 63.035-63.035 63.035v0zM512.209 510.826c-34.813 0-63.035-28.222-63.035-63.035s28.222-63.035 63.035-63.035c34.813 0 63.035 28.222 63.035 63.035v0c-0.235 34.718-28.316 62.8-63.012 63.035h-0.022zM701.73 510.826c-34.813 0-63.035-28.222-63.035-63.035s28.222-63.035 63.035-63.035c34.813 0 63.035 28.222 63.035 63.035v0c-0.235 34.718-28.316 62.8-63.012 63.035h-0.022z" />
<glyph unicode="&#xe908;" glyph-name="gear" d="M1010.219 307.263c-22.383 6.154-41.734 16.983-57.757 31.433l0.125-0.111v218.832c15.805 14.617 35.183 25.608 56.667 31.513l0.964 0.226c8.256 2.275 14.22 9.716 14.22 18.551 0 2.024-0.313 3.975-0.893 5.807l0.037-0.136c-11.013 34.655-24.18 64.506-40.086 92.601l1.248-2.396c-3.441 4.886-9.058 8.039-15.412 8.039-3.224 0-6.258-0.812-8.909-2.242l0.1 0.049c-19.982-10.968-43.787-17.42-69.098-17.42-5.080 0-10.1 0.26-15.046 0.767l0.621-0.052-136.144 136.561c-0.221 2.99-0.347 6.476-0.347 9.992 0 23.945 5.841 46.526 16.177 66.396l-0.378-0.799c1.394 2.595 2.213 5.677 2.213 8.951 0 7.62-4.437 14.204-10.868 17.309l-0.115 0.050c-19.356 9.992-42.557 19.745-66.549 27.769l-3.611 1.047c-1.696 0.543-3.647 0.856-5.671 0.856-8.835 0-16.276-5.964-18.519-14.085l-0.032-0.135c-9.57-33.265-29.647-60.927-56.342-79.877l-0.454-0.306h-167.047c-27.506 18.885-47.983 46.265-57.776 78.309l-0.273 1.038c-1.994 8.647-9.627 14.997-18.743 14.997-1.954 0-3.839-0.292-5.615-0.834l0.136 0.036c-37.996-11.725-70.774-25.901-101.623-43.118l2.647 1.357c-5.832-3.474-9.678-9.748-9.678-16.919 0-4.132 1.276-7.965 3.457-11.127l-0.043 0.066c16.476-23.422 26.331-52.536 26.331-83.953 0-0.877-0.008-1.752-0.023-2.626l0.002 0.132-142.825-144.914c-0.893-0.020-1.946-0.031-3.001-0.031-26.37 0-51.109 6.983-72.468 19.201l0.716-0.377c-2.861 1.851-6.357 2.952-10.111 2.952-8.299 0-15.342-5.38-17.831-12.842l-0.038-0.133c-7.313-14.472-14.929-32.402-21.481-50.837l-1.071-3.454c-0.478-1.613-0.753-3.466-0.753-5.384 0-8.876 5.892-16.376 13.978-18.803l0.139-0.036c33.401-9.548 61.2-29.626 80.296-56.349l0.304-0.447v-167.047c-18.811-27.746-46.414-48.303-78.749-57.793l-1.016-0.256c-8.225-2.462-14.117-9.962-14.117-18.838 0-1.917 0.275-3.771 0.788-5.522l-0.035 0.139c8.204-25.559 16.976-46.979 27.164-67.574l-1.272 2.843c3.155-6.546 9.739-10.983 17.359-10.983 3.274 0 6.356 0.819 9.054 2.263l-0.103-0.050c19.782 11.069 43.408 17.588 68.556 17.588 1.298 0 2.592-0.017 3.882-0.052l-0.19 0.004 142.408-144.078c0.015-0.788 0.024-1.717 0.024-2.649 0-28.389-8.093-54.888-22.098-77.314l0.358 0.615c-1.877-2.916-2.993-6.476-2.993-10.297 0-6.931 3.67-13.004 9.173-16.383l0.084-0.048c26.801-15.421 57.989-29.543 90.579-40.637l3.803-1.124c1.696-0.543 3.647-0.856 5.671-0.856 8.835 0 16.276 5.964 18.519 14.085l0.032 0.135c9.417 33.108 29.366 60.644 55.927 79.462l0.451 0.303h167.047c27.137-19 47.13-46.585 56.138-78.76l0.24-1.005c2.275-8.256 9.716-14.22 18.551-14.22 2.024 0 3.975 0.313 5.807 0.893l-0.136-0.037c32.413 10.346 60.049 22.092 86.347 36.027l-2.824-1.365c5.611 3.001 9.364 8.821 9.364 15.518 0 3.723-1.16 7.175-3.138 10.014l0.038-0.057c-16.457 23.103-26.311 51.902-26.311 83.002 0 0.183 0 0.366 0.001 0.549v-0.028c-0.205 2.749-0.321 5.955-0.321 9.188s0.117 6.439 0.346 9.613l-0.025-0.425 125.285 125.285c2.818 0.304 6.087 0.477 9.396 0.477s6.578-0.173 9.798-0.512l-0.402 0.034c29.012-0.041 56.017-8.601 78.657-23.311l-0.562 0.342c3.232-2.154 7.205-3.438 11.478-3.438 8.061 0 15.056 4.568 18.536 11.257l0.055 0.116c10.016 19.575 19.642 42.936 27.435 67.119l0.963 3.459c2.141 3.098 3.419 6.934 3.419 11.069 0 8.158-4.977 15.153-12.060 18.116l-0.13 0.048zM480.679 162.349c-144.63 16.323-256 137.96-256 285.609 0 158.683 128.638 287.321 287.321 287.321 158.668 0 287.297-128.614 287.321-287.277v-0.003c-0.505-158.762-129.323-287.268-288.155-287.268-10.739 0-21.341 0.587-31.776 1.732l1.288-0.115zM675.289 448c0-0.124 0.001-0.27 0.001-0.417 0-90.182-73.107-163.289-163.289-163.289s-163.289 73.107-163.289 163.289c0 90.182 73.107 163.289 163.289 163.289 0.147 0 0.293 0 0.44-0.001h-0.023c89.951 0 162.871-72.92 162.871-162.871v0z" />
<glyph unicode="&#xe909;" glyph-name="heart-fill" horiz-adv-x="1109" d="M1108.742 640.652c0-242.537-348.152-560.633-492.589-682.11-16.705-14.435-38.634-23.228-62.617-23.228s-45.912 8.793-62.74 23.332l0.123-0.104c-142.767 121.477-490.919 439.573-490.919 682.11 0 305.989 320.6 432.059 554.371 198.288 230.849 231.266 554.371 107.702 554.371-198.288z" />
<glyph unicode="&#xe90a;" glyph-name="heart-outline" horiz-adv-x="1097" d="M548.527-64c-0.047 0-0.103 0-0.159 0-37.914 0-72.62 13.735-99.414 36.5l0.22-0.182c-167.814 141.097-449.174 412.021-449.174 641.2-0.213 4.485-0.335 9.742-0.335 15.027 0 136.198 80.724 253.542 196.937 306.796l2.103 0.864c37.25 14.55 80.375 22.982 125.47 22.982 85.434 0 163.798-30.265 224.958-80.657l-0.607 0.485c60.217 49.219 137.961 79.043 222.671 79.043 45.575 0 89.134-8.633 129.13-24.353l-2.397 0.83c118.228-53.148 199.066-169.885 199.066-305.503 0-5.457-0.131-10.883-0.39-16.276l0.029 0.761c0-229.179-281.36-500.938-449.174-641.2-26.494-22.559-61.108-36.291-98.929-36.318h-0.006zM321.435 816.815c-24.394-0.034-47.633-4.94-68.809-13.797l1.182 0.439c-66.025-31.926-110.759-98.392-110.759-175.305 0-5.15 0.201-10.253 0.594-15.302l-0.042 0.668c0-145.272 205.384-369.859 399.080-530.159 1.858-1.535 4.264-2.466 6.888-2.466s5.030 0.931 6.906 2.48l-0.018-0.015c192.444 161.97 397.828 386.557 397.828 531.411 0.32 4.17 0.503 9.030 0.503 13.933 0 76.749-44.734 143.050-109.551 174.251l-1.158 0.502c-76.393 31.309-169.901 5.009-243.79-68.879-13.242-12.392-31.092-20.003-50.72-20.003s-37.478 7.61-50.762 20.041l0.042-0.039c-44.43 48.349-107.040 79.387-176.917 82.221l-0.499 0.016z" />
<glyph unicode="&#xe90b;" glyph-name="location" horiz-adv-x="658" d="M328.949 960c-5.488 0.317-11.907 0.498-18.368 0.498s-12.88-0.181-19.252-0.538l0.884 0.040c-219.995-24.212-349.821-264.245-267.167-470.464l278.855-538.508c4.878-9.011 14.26-15.028 25.047-15.028s20.169 6.017 24.973 14.878l0.074 0.15 278.855 538.508c82.655 206.219-48.424 446.252-267.584 470.464-5.424 0.298-11.772 0.468-18.159 0.468s-12.735-0.17-19.039-0.506l0.88 0.037zM328.949 731.656c68.228-1.216 123.071-56.811 123.071-125.216 0-10.075-1.19-19.872-3.436-29.258l0.172 0.853c-10.624-42.139-42.144-75.042-82.626-87.437l-0.864-0.227c-13.621-5.533-29.422-8.744-45.974-8.744-69.165 0-125.234 56.069-125.234 125.234s56.069 125.234 125.234 125.234c3.693 0 7.348-0.16 10.96-0.473l-0.469 0.033z" />
<glyph unicode="&#xe90c;" glyph-name="minus" horiz-adv-x="5120" d="M0 960h5120v-1024h-5120v1024z" />
<glyph unicode="&#xe90d;" glyph-name="plus" horiz-adv-x="1001" d="M1000.782 548.078v-200.156h-397.911v-411.922h-204.96v411.922h-397.911v200.156h397.911v411.922h204.96v-411.922h397.911z" />
<glyph unicode="&#xe90e;" glyph-name="search" horiz-adv-x="830" d="M816.528 65.826l-161.135 244.625c-2.989 4.591-4.766 10.209-4.766 16.242 0 7.73 2.918 14.778 7.712 20.103l-0.024-0.027c54.376 64.354 87.428 148.254 87.428 239.873 0 205.881-166.9 372.781-372.781 372.781s-372.781-166.9-372.781-372.781c0-205.881 166.9-372.781 372.781-372.781 15.678 0 31.131 0.968 46.3 2.847l-1.815-0.183c24.704 2.856 47.049 7.696 68.532 14.477l-2.575-0.701c2.845 0.969 6.123 1.529 9.531 1.529 10.38 0 19.549-5.19 25.051-13.117l0.066-0.101 161.135-244.625c15.114-23.038 40.823-38.042 70.036-38.042 3.122 0 6.203 0.171 9.236 0.505l-0.374-0.033c13.248 1.875 25.115 6.602 35.359 13.546l-0.293-0.187c22.705 15.164 37.457 40.685 37.457 69.653 0 17.297-5.26 33.365-14.268 46.693l0.188-0.295zM200.792 473.673c-21.879 32.197-34.932 71.928-34.932 114.708 0 105.968 80.089 193.229 183.039 204.557l0.922 0.082c7.281 0.924 15.706 1.452 24.255 1.452 71.235 0 133.913-36.638 170.217-92.098l0.476-0.775c21.297-31.908 33.986-71.141 33.986-113.337 0-113.756-92.218-205.974-205.974-205.974-71.56 0-134.597 36.493-171.516 91.884l-0.472 0.753z" />
<glyph unicode="&#xe90f;" glyph-name="star-fill" horiz-adv-x="1070" d="M1048.212 500.807l-202.462-200.375 45.919-280.943c0.621-3.547 0.976-7.63 0.976-11.797 0-23.69-11.473-44.701-29.167-57.778l-0.196-0.138c-11.583-8.554-26.143-13.692-41.903-13.692-12.162 0-23.61 3.059-33.615 8.451l0.377-0.186-253.391 130.244-252.974-130.244c-9.468-4.998-20.693-7.933-32.603-7.933-0.132 0-0.264 0-0.396 0.001h0.020c-0.169-0.001-0.369-0.002-0.568-0.002-15.473 0-29.776 5.011-41.374 13.499l0.198-0.138c-18.104 13.199-29.735 34.335-29.735 58.188 0 4.070 0.339 8.061 0.989 11.946l-0.058-0.42 45.084 280.943-202.045 200.375c-13.159 13.020-21.307 31.082-21.307 51.046 0 36.571 27.341 66.756 62.697 71.229l0.355 0.037 279.69 44.667 128.157 250.469c12.102 23.564 36.24 39.407 64.078 39.407s51.976-15.843 63.89-39.004l0.188-0.403 128.157-250.469 281.36-41.745c27.159-4.301 49.016-23.235 57.459-48.332l0.149-0.509c2.512-7.119 3.964-15.327 3.964-23.875 0-20.539-8.38-39.12-21.908-52.512l-0.006-0.006z" />
<glyph unicode="&#xe910;" glyph-name="star-half-fill" horiz-adv-x="1070" d="M1065.745 574.278c-8.508 25.661-30.407 44.635-57.205 48.79l-0.403 0.051-281.36 44.667-128.157 250.469c-11.221 24.65-35.548 41.524-63.841 41.745h-0.029c-28.389-0.377-52.766-17.171-64.102-41.306l-0.185-0.439-128.157-250.469-281.36-41.745c-35.921-4.534-63.424-34.896-63.424-71.681 0-21.211 9.145-40.287 23.707-53.499l0.060-0.054 202.462-200.375-45.919-280.943c-0.621-3.547-0.976-7.63-0.976-11.797 0-23.69 11.473-44.701 29.167-57.778l0.196-0.138c11.583-8.554 26.143-13.692 41.903-13.692 12.162 0 23.61 3.059 33.615 8.451l-0.377-0.186 253.391 130.244 252.974-130.244c9.502-5 20.763-7.935 32.709-7.935 0.242 0 0.483 0.001 0.724 0.004h-0.037c0.169-0.001 0.369-0.002 0.568-0.002 15.473 0 29.776 5.011 41.374 13.499l-0.198-0.138c18.104 13.199 29.735 34.335 29.735 58.188 0 4.070-0.339 8.061-0.989 11.946l0.058-0.42-45.919 280.943 202.462 200.375c13.077 13.007 21.169 31.013 21.169 50.91 0 8.069-1.331 15.827-3.785 23.067l0.149-0.506zM740.135 397.698c-23.803-23.417-38.552-55.974-38.552-91.975 0-7.62 0.661-15.086 1.928-22.343l-0.112 0.772 23.377-147.359-131.914 68.461c-17.475 9.128-38.154 14.52-60.084 14.611h-0.029v508.869l66.792-133.166c19.161-36.959 54.343-63.324 96.096-70.032l0.752-0.1 147.359-22.96z" />
<glyph unicode="&#xe911;" glyph-name="star-outline" horiz-adv-x="1069" d="M250.469-64c-39.528 0.167-71.507 32.249-71.507 71.8 0 4.128 0.348 8.175 1.017 12.113l-0.060-0.424 45.919 280.943-204.55 200.375c-13.2 13.154-21.367 31.35-21.367 51.454 0 7.865 1.25 15.438 3.562 22.531l-0.145-0.514c8.634 25.488 30.499 44.289 57.208 48.374l0.399 0.050 281.36 45.084 128.157 250.469c12.102 23.564 36.24 39.407 64.078 39.407s51.976-15.843 63.89-39.004l0.188-0.403 128.157-250.469 281.777-41.745c27.021-4.093 48.789-22.934 57.047-47.923l0.144-0.501c2.813-7.413 4.441-15.984 4.441-24.935 0-20.348-8.415-38.731-21.956-51.857l-0.019-0.018-202.462-200.375 45.919-280.943c0.547-3.339 0.86-7.188 0.86-11.109 0-39.885-32.333-72.219-72.219-72.219-11.886 0-23.102 2.872-32.991 7.959l0.405-0.19-252.974 130.661-253.391-130.661c-8.968-4.743-19.56-7.643-30.801-7.93l-0.091-0.002zM223.335 500.807l106.032-104.779c23.808-23.545 38.551-56.213 38.551-92.324 0-7.644-0.661-15.133-1.928-22.415l0.112 0.776-23.795-145.272 132.331 68.461c17.421 9.068 38.041 14.386 59.904 14.386s42.483-5.319 60.638-14.732l-0.734 0.346 132.331-68.461-23.795 146.942c-1.062 6.267-1.669 13.487-1.669 20.849 0 36.409 14.845 69.352 38.812 93.105l0.010 0.010 105.614 103.11-177.833 29.221c-23.422 3.639-42.839 18.095-53.244 38.007l-0.19 0.398-79.733 160.3-67.209-133.166c-19.002-37.093-54.262-63.53-96.116-70.038l-0.731-0.094z" />
<glyph unicode="&#xe912;" glyph-name="thumbs-down" horiz-adv-x="1092" d="M0 405.629l68.879 484.24c6.578 39.534 40.187 69.41 80.91 70.13l0.075 0.001h471.716c23.055 0 41.745-18.69 41.745-41.745v0-568.147c-0.154-25.335-9.276-48.509-24.347-66.54l0.135 0.166-54.686-68.879c-28.135-33.717-45.288-77.452-45.502-125.188v-30.52c0.004-0.372 0.006-0.812 0.006-1.253 0-67.176-54.34-121.66-121.461-121.894h-0.022c-0.4-0.005-0.872-0.007-1.346-0.007-59.202 0-108.547 42.205-119.587 98.169l-0.127 0.774-16.698 87.664c-2.241 11.118-3.524 23.898-3.524 36.978 0 21.856 3.581 42.875 10.189 62.503l-0.403-1.381 29.639 91.839h-232.101c-0.165-0.001-0.359-0.002-0.554-0.002-46.11 0-83.49 37.38-83.49 83.49 0 3.384 0.201 6.721 0.593 9.999l-0.039-0.396zM759.338 336.75h242.537c49.568 0 89.751 40.183 89.751 89.751v417.448c0.015 0.621 0.024 1.353 0.024 2.087 0 49.568-40.183 89.751-89.751 89.751-0.009 0-0.017 0-0.026 0h-242.119z" />
<glyph unicode="&#xe913;" glyph-name="thumbs-up" horiz-adv-x="1092" d="M1091.209 490.371l-68.044-484.24c-6.578-39.534-40.187-69.41-80.91-70.13l-0.075-0.001h-471.716c-0.015 0-0.034 0-0.052 0-23.055 0-41.745 18.69-41.745 41.745 0 0.734 0.019 1.464 0.056 2.189l-0.004-0.102v566.060c0.079 25.344 9.216 48.54 24.342 66.533l-0.13-0.159 57.608 69.296c28.047 33.762 45.177 77.467 45.501 125.164v31.38c0 0.005 0 0.012 0 0.018 0 66.587 53.391 120.703 119.698 121.875l0.11 0.002c0.11 0 0.239 0.001 0.369 0.001 59.037 0 108.203-42.259 118.9-98.178l0.121-0.758 17.115-87.664c2.241-11.118 3.524-23.898 3.524-36.978 0-21.856-3.581-42.875-10.189-62.503l0.403 1.381-29.639-91.004h233.771c45.308-1.034 81.642-38.009 81.642-83.469 0-3.686-0.239-7.317-0.702-10.877l0.045 0.42zM333.958 559.25h-244.207c-49.568 0-89.751-40.183-89.751-89.751v0-419.535c0 0 0-0.001 0-0.001 0-49.338 39.996-89.334 89.334-89.334 0.147 0 0.294 0 0.44 0.001h244.184z" />
<glyph unicode="&#xe914;" glyph-name="user" horiz-adv-x="1023" d="M1022.748-64h-1022.748c0 127.322 83.49 240.45 210.811 310.581 32.836 17.921 70.964 33.446 110.923 44.58l3.875 0.922c-89.99 69.347-147.4 177.159-147.4 298.38 0 1.942 0.015 3.88 0.044 5.815l-0.003-0.292c0 200.792 149.029 364.015 333.958 364.015s333.958-163.222 333.958-364.015c0.015-1.268 0.024-2.765 0.024-4.265 0-121.951-58.103-230.331-148.137-298.967l-0.916-0.67c43.74-12.626 81.684-28.545 117.265-48.217l-2.884 1.462c128.157-68.879 211.229-182.007 211.229-309.329z" />
<glyph unicode="&#xe915;" glyph-name="user-circle" d="M512.209 960c-0.124 0-0.27 0-0.417 0-282.885 0-512.209-229.324-512.209-512.209s229.324-512.209 512.209-512.209c282.885 0 512.209 229.324 512.209 512.209 0 0.147 0 0.294 0 0.44v-0.023c-0.474 282.463-229.327 511.317-511.745 511.791h-0.046zM781.045 197.322c-1.224-1.323-2.969-2.148-4.907-2.148-2.965 0-5.478 1.932-6.351 4.605l-0.013 0.047c-16.665 53.852-52.212 97.673-98.733 124.678l-1.038 0.556c-8.529 4.721-19.103 9.764-29.971 14.237l-2.172 0.792c30.503 40.072 48.868 90.822 48.868 145.862 0 1.26-0.010 2.518-0.029 3.774l0.002-0.189c0 118.138-76.81 195.783-171.571 195.783s-170.736-79.733-170.736-197.87c-0.014-0.985-0.022-2.147-0.022-3.312 0-55.066 18.194-105.882 48.9-146.765l-0.453 0.63c-10.854-4.592-21.707-9.601-31.726-15.028-48.717-27.955-84.994-72.922-101.046-126.62l-0.394-1.536c-0.657-3.053-3.334-5.307-6.537-5.307-1.85 0-3.525 0.752-4.734 1.967v0c-64.721 66.292-104.646 157.041-104.646 257.116 0 203.345 164.844 368.189 368.189 368.189s368.189-164.844 368.189-368.189c0-97.234-37.692-185.665-99.261-251.479l0.193 0.208z" />
<glyph unicode="&#xe916;" glyph-name="user-multiple" horiz-adv-x="1329" d="M510.121 292.083c-44.052-12.593-82.283-28.519-118.14-48.227l2.925 1.473c-125.234-68.461-208.724-179.085-208.724-303.485 0-3.919-3.177-7.097-7.097-7.097v0h-171.571c-0.031 0-0.068-0.001-0.105-0.001-4.15 0-7.514 3.364-7.514 7.514 0 0.443 0.038 0.876 0.112 1.298l-0.006-0.045c3.34 125.234 83.49 234.606 208.724 303.067 33.415 17.941 72.256 33.478 112.927 44.581l3.958 0.921c-89.99 69.347-147.4 177.159-147.4 298.38 0 1.942 0.015 3.88 0.044 5.815l-0.003-0.292c0 200.792 149.029 364.015 333.958 364.015 32.954-0.034 64.683-5.222 94.443-14.802l-2.187 0.608c-142.018-50.761-241.815-184.138-241.815-340.823 0-3.164 0.041-6.319 0.122-9.463l-0.009 0.465c-0.026-1.643-0.041-3.581-0.041-5.522 0-121.221 57.409-229.032 146.523-297.73l0.877-0.65zM1117.926 245.329c-33.147 18.195-71.659 34.123-111.992 45.753l-4.058 1.002c89.981 69.348 147.384 177.154 147.384 298.367 0 1.506-0.009 3.009-0.027 4.511l0.002-0.228c1.252 202.045-147.359 365.267-331.871 365.267s-333.958-163.222-333.958-364.015c-0.018-1.361-0.028-2.968-0.028-4.578 0-121.768 57.929-230.006 147.733-298.659l0.907-0.665c-44.052-12.593-82.283-28.519-118.14-48.227l2.925 1.473c-125.234-68.461-208.724-178.668-208.724-303.067-0.008-0.129-0.013-0.279-0.013-0.431 0-3.919 3.177-7.097 7.097-7.097 0.151 0 0.302 0.005 0.451 0.014l-0.020-0.001h1005.632c4.15 0 7.514 3.364 7.514 7.514v0c-3.34 125.652-85.577 235.858-210.811 304.32z" />
</font>
</defs>
</svg>
